<svg xmlns="http://www.w3.org/2000/svg" version="1.1" xmlns:xlink="http://www.w3.org/1999/xlink" xmlns:svgjs="http://svgjs.com/svgjs" width="512" height="512"><svg id="SvgjsSvg1000" data-name="Layer 1" xmlns="http://www.w3.org/2000/svg" viewBox="0 0 512 512"><defs><style>.cls-1{fill:#d9e4e8;}.cls-2{opacity:0.14;}.cls-3{fill:#17292d;}.cls-4{fill:#141f38;}</style></defs><title>podcast-microphone-filled</title><path class="cls-1" d="M256,396.8a128.14,128.14,0,0,1-128-128v-128a128,128,0,0,1,256,0v128A128.14,128.14,0,0,1,256,396.8Z"></path><g class="cls-2"><path class="cls-3" d="M256,0a139.81,139.81,0,0,0-32,3.74C286.15,18.33,332.8,74.36,332.8,140.8v128c0,66.44-46.65,122.47-108.8,137.06a139.81,139.81,0,0,0,32,3.74c77.44,0,140.8-63.36,140.8-140.8v-128C396.8,63.36,333.44,0,256,0Z"></path></g><path class="cls-4" d="M448,262.4a12.8,12.8,0,0,0-25.6,0c0,87.45-67.8,159.36-153.6,165.91V409c71.5-6.52,128-67.08,128-140.21v-128C396.8,63.36,333.44,0,256,0S115.2,63.36,115.2,140.8v128c0,73.13,56.5,133.69,128,140.21v19.3C157.4,421.76,89.6,349.85,89.6,262.4a12.8,12.8,0,0,0-25.6,0C64,364,143.28,447.35,243.2,454V486.4H140.8a12.8,12.8,0,0,0,0,25.6H371.2a12.8,12.8,0,0,0,0-25.6H268.8V454C368.72,447.35,448,364,448,262.4Zm-307.2,6.4h38.4a12.8,12.8,0,0,0,0-25.6H140.8V217.6h38.4a12.8,12.8,0,1,0,0-25.6H140.8V166.4h38.4a12.8,12.8,0,1,0,0-25.6H140.8a115.2,115.2,0,1,1,230.4,0H332.8a12.8,12.8,0,1,0,0,25.6h38.4V192H332.8a12.8,12.8,0,1,0,0,25.6h38.4v25.6H332.8a12.8,12.8,0,0,0,0,25.6h38.4a115.2,115.2,0,0,1-230.4,0Z"></path></svg><style>@media (prefers-color-scheme: light) { :root { filter: none; } }
</style></svg>