<?xml version="1.0" standalone="no"?>
<!DOCTYPE svg PUBLIC "-//W3C//DTD SVG 20010904//EN"
 "http://www.w3.org/TR/2001/REC-SVG-20010904/DTD/svg10.dtd">
<svg version="1.0" xmlns="http://www.w3.org/2000/svg"
 width="512.000000pt" height="512.000000pt" viewBox="0 0 512.000000 512.000000"
 preserveAspectRatio="xMidYMid meet">
<metadata>
Created by potrace 1.14, written by Peter Selinger 2001-2017
</metadata>
<g transform="translate(0.000000,512.000000) scale(0.100000,-0.100000)"
fill="#000000" stroke="none">
<path d="M1579 3721 l-29 -29 0 -1131 0 -1130 23 -26 c13 -15 37 -28 59 -32
32 -5 41 -1 68 25 l30 30 0 1132 0 1132 -29 29 c-20 20 -39 29 -61 29 -22 0
-41 -9 -61 -29z"/>
<path d="M3789 3722 l-34 -30 0 -1132 0 -1132 34 -30 c28 -25 39 -29 70 -24
21 3 45 16 59 31 l22 26 0 1129 0 1129 -22 26 c-14 15 -38 28 -59 31 -31 5
-42 1 -70 -24z"/>
<path d="M479 3382 l-34 -30 0 -792 0 -792 34 -30 c28 -25 39 -29 70 -24 21 3
45 16 59 31 l22 26 0 789 0 789 -22 26 c-14 15 -38 28 -59 31 -31 5 -42 1 -70
-24z"/>
<path d="M1973 3285 c-17 -7 -36 -22 -42 -34 -15 -28 -15 -1354 0 -1383 6 -11
26 -26 45 -34 29 -12 39 -12 68 0 19 8 39 23 45 34 15 29 15 1355 0 1384 -6
11 -26 26 -44 34 -40 16 -32 17 -72 -1z"/>
<path d="M3443 3285 c-17 -7 -36 -22 -42 -34 -15 -28 -15 -1354 0 -1383 6 -11
26 -26 45 -34 29 -12 39 -12 68 0 19 8 39 23 45 34 15 29 15 1355 0 1384 -6
11 -26 26 -44 34 -40 16 -32 17 -72 -1z"/>
<path d="M874 3240 c-12 -4 -31 -21 -43 -36 -21 -27 -21 -29 -21 -645 l0 -619
29 -32 c38 -43 89 -44 129 -5 l27 27 0 630 0 630 -25 24 c-29 29 -66 39 -96
26z"/>
<path d="M4184 3240 c-12 -4 -31 -21 -43 -36 -21 -27 -21 -29 -21 -645 l0
-619 29 -32 c22 -25 36 -32 66 -32 30 0 44 7 66 32 l29 32 0 620 0 620 -27 29
c-31 33 -67 45 -99 31z"/>
<path d="M2313 3116 l-28 -24 0 -532 0 -532 28 -24 c48 -41 113 -29 142 26 23
44 23 1016 0 1060 -29 55 -94 67 -142 26z"/>
<path d="M3049 3111 l-29 -29 0 -522 0 -522 29 -29 c41 -41 102 -37 138 10 18
23 18 1059 0 1082 -36 47 -97 51 -138 10z"/>
<path d="M111 2914 l-31 -26 0 -328 0 -328 31 -26 c41 -35 83 -34 120 3 l29
29 0 322 0 322 -29 29 c-37 37 -79 38 -120 3z"/>
<path d="M1209 2911 l-29 -29 0 -322 0 -322 29 -29 c31 -31 64 -36 104 -18 50
23 52 39 52 369 0 330 -2 346 -52 369 -40 18 -73 13 -104 -18z"/>
<path d="M2697 2929 c-44 -26 -47 -52 -47 -371 0 -283 1 -305 20 -335 35 -59
126 -55 157 7 10 19 13 101 11 343 l-3 319 -28 24 c-30 25 -78 31 -110 13z"/>
<path d="M4519 2911 l-29 -29 0 -322 0 -322 29 -29 c51 -51 131 -30 150 39 7
21 11 152 11 312 0 160 -4 291 -11 312 -19 69 -99 90 -150 39z"/>
<path d="M4889 2911 l-29 -29 0 -322 0 -322 29 -29 c37 -37 79 -38 120 -3 l31
26 0 328 0 328 -31 26 c-41 35 -83 34 -120 -3z"/>
</g>
</svg>
